<?xml version="1.0" encoding="UTF-8" standalone="no"?>
<svg
   xmlns:dc="http://purl.org/dc/elements/1.1/"
   xmlns:cc="http://creativecommons.org/ns#"
   xmlns:rdf="http://www.w3.org/1999/02/22-rdf-syntax-ns#"
   xmlns:svg="http://www.w3.org/2000/svg"
   xmlns="http://www.w3.org/2000/svg"
   version="1.1"
   xml:space="preserve"
   viewBox="0 0 499.99998 499.99998"
   y="0px"
   x="0px"
   id="Layer_1"><metadata
   id="metadata1011"><rdf:RDF><cc:Work
       rdf:about=""><dc:format>image/svg+xml</dc:format><dc:type
         rdf:resource="http://purl.org/dc/dcmitype/StillImage" /><dc:title></dc:title></cc:Work></rdf:RDF></metadata><defs
   id="defs1009" /> <style
   id="style933"
   type="text/css"> .st0{fill:#001B71;} .st1{fill:#009ADE;} </style>   <g
   style="display:inline;opacity:0.64600004"
   id="layer3"><circle
     r="249.48392"
     cy="250"
     cx="250"
     id="path9199"
     style="opacity:1;fill:#ffffff;fill-opacity:1;stroke:#001b71;stroke-width:1.03217888;stroke-miterlimit:4;stroke-dasharray:none;stroke-dashoffset:0;stroke-opacity:1" /></g><g
   id="layer4"><g
     transform="matrix(1.1385791,0,0,1.1385791,95.773595,77.263658)"
     id="g1062"><g
       id="g981"
       transform="translate(0,1.1622016)"><g
         id="Shape_1_copy"><g
           id="g937"><path
             class="st0"
             d="m 114.9,36.4 c 1.1,6.2 -5.1,13.8 -5.1,13.8 53.5,16.8 91.9,64.3 91.9,64.3 -11,-42.7 -86.8,-78.1 -86.8,-78.1 z"
             id="path935"
             style="fill:#001b71" /></g></g><g
         id="g979"><g
           id="Shape_1"><g
             id="g942"><path
               class="st0"
               d="m 117.2,248.2 c 0,0 6.7,7.4 6,13.9 0,0 73.2,-42.1 81.3,-87.2 0.1,0.1 -35,52 -87.3,73.3 z"
               id="path940"
               style="fill:#001b71" /></g></g><g
           id="Shape_4"><g
             id="g947"><path
               class="st0"
               d="M 140.3,74.3 121.9,65 c 0,0 -85.9,72.9 -110,156.8 0,0 -20.9,72.5 40.9,62.6 l -0.7,-6.1 c 0,0 -40.5,0.5 -19.7,-56.4 20.7,-56.9 54.5,-95 107.9,-147.6 z"
               id="path945"
               style="fill:#001b71" /></g></g><g
           id="Shape_2"><g
             id="g952"><path
               class="st0"
               d="M 247.7,15.5 C 210.6,-2.9 148.6,44.1 148.6,44.1 L 166,55.5 c 61.7,-40.9 79.9,-22.2 79.9,-22.2 26.7,16.7 -3.4,78.7 -3.4,78.7 42.8,-85 5.2,-96.5 5.2,-96.5 z"
               id="path950"
               style="fill:#001b71" /></g></g><g
           id="Shape_5"><g
             id="g957"><path
               class="st0"
               d="M 21.3,68.3 C 10.3,27.7 41.5,24.9 41.5,24.9 l 1.3,-5.6 C 19.4,14.2 -24,34.4 16.9,109.1 c 41,74.7 110.7,123 110.7,123 3.6,-0.3 18.5,-10.9 18.5,-10.9 C 29.9,130.7 21.3,68.3 21.3,68.3 Z"
               id="path955"
               style="fill:#001b71" /></g></g><g
           id="Shape_3"><g
             id="g962"><path
               class="st0"
               d="m 245.1,175.8 c 0,0 38.4,62.1 6.2,79.3 0,0 -20.6,15.5 -77.5,-17.4 l -15.9,13.9 c 0,0 98.3,59.2 112.7,-0.8 -0.1,-0.1 5.1,-36.2 -25.5,-75 z"
               id="path960"
               style="fill:#001b71" /></g></g></g></g><g
       id="g1004"
       transform="translate(0,1.1622016)"><g
         id="Ellipse_1"><g
           id="g985"><path
             class="st1"
             d="m 117.6,269.2 c -0.7,-16.9 -14.7,-30 -31.3,-29.3 -16.6,0.7 -29.6,15 -28.9,31.9 0.7,16.9 14.7,30 31.3,29.3 16.6,-0.7 29.6,-15 28.9,-31.9 z"
             id="path983"
             style="fill:#009ade" /></g></g><g
         id="Ellipse_1_copy"><g
           id="g990"><path
             class="st1"
             d="M 108,29.3 C 107.4,12.4 93.3,-0.7 76.7,0 60.1,0.7 47.1,15 47.8,32 c 0.7,16.9 14.7,30 31.3,29.3 16.7,-0.7 29.6,-15 28.9,-32 z"
             id="path988"
             style="fill:#009ade" /></g></g><g
         id="Ellipse_1_copy_2"><g
           id="g995"><path
             class="st1"
             d="m 254.8,143.1 c -0.7,-16.9 -14.7,-30 -31.3,-29.3 -16.6,0.7 -29.6,15 -28.9,31.9 0.7,16.9 14.7,30 31.3,29.3 16.6,-0.7 29.5,-14.9 28.9,-31.9 z"
             id="path993"
             style="fill:#009ade" /></g></g></g></g></g></svg>