<?xml version="1.0" encoding="UTF-8" standalone="no"?>
<!-- Generator: Adobe Illustrator 23.1.0, SVG Export Plug-In . SVG Version: 6.00 Build 0) -->

<svg
   id="Layer_1"
   x="0px"
   y="0px"
   viewBox="0 0 400 245"
   style="enable-background:new 0 0 400 245;"
   xml:space="preserve"
   version="1.1"
   xmlns="http://www.w3.org/2000/svg"
   xmlns:svg="http://www.w3.org/2000/svg"><defs
   id="defs5"><style
     id="style1-6">
      .cls-1 {
        fill: url(#linear-gradient);
      }

      .cls-1, .cls-2, .cls-3 {
        stroke-width: 0px;
      }

      .cls-2 {
        fill: #000;
      }

      .cls-3 {
        fill: url(#linear-gradient-2);
      }
    </style><linearGradient
     id="linear-gradient"
     x1="95.4"
     y1="5886.9"
     x2="95.4"
     y2="5886.9"
     gradientTransform="translate(0,-5822.8)"
     gradientUnits="userSpaceOnUse"><stop
       offset="0"
       stop-color="#ffcd00"
       id="stop1" /><stop
       offset="1"
       stop-color="#6715e7"
       id="stop2" /></linearGradient><linearGradient
     id="linear-gradient-2"
     x1="0"
     y1="5887"
     x2="254.1"
     y2="5887"
     gradientTransform="translate(0,-5822.8)"
     gradientUnits="userSpaceOnUse"><stop
       offset="0"
       stop-color="#ffcd00"
       id="stop3" /><stop
       offset="1"
       stop-color="#6715e7"
       id="stop4" /></linearGradient></defs> <style
   type="text/css"
   id="style1"> .st0{fill:#747474;} .st1{fill:#F05225;} .st2{fill:#7FBB42;} .st3{fill:#33A0DA;} .st4{fill:#FDB813;} </style>  <g
   id="g5"
   transform="matrix(0.53273119,0,0,0.53273119,2.73659,85.461516)"><g
     id="g10"><path
       class="cls-2"
       d="m 574.6,115.7 c -1.4,-11.3 -2.7,-22.6 -3.5,-33.9 v -0.5 c -0.7,-9.2 -3,-17.1 -6.9,-23.5 v 0 c -7.9,-12.2 -22.1,-19.6 -39.8,-19.7 -23.8,0 -41.3,13.7 -45.4,34.6 0,0.2 -0.1,0.5 -0.1,0.7 -0.7,4.1 -0.9,8.6 -0.5,13.2 0.4,4.9 1.4,9.4 3,13.5 0,0 0.1,0.2 0.1,0.3 4,10.4 11.7,18.4 23,23.1 7.3,3 14.4,4.4 21.1,3.6 8,-1 15.4,-5.2 21.6,-13.6 0.9,2.5 1.6,4.9 2.4,7.1 0.3,0.8 0.6,1.6 1,2.3 0.7,1.4 2.5,3 3.8,3.1 7.6,0.3 15.2,0.2 23.3,0.2 -1.2,-4 -2.7,-7.2 -3.1,-10.5 z M 544.7,84.3 c -0.4,10.1 -5.4,16.3 -14.4,18 v 0 c -1.8,0.4 -3.8,0.7 -5.9,0.7 -5.4,0 -10,-1.4 -13.3,-4.2 H 511 c -3.2,-2.6 -5.2,-6.2 -6.1,-10.7 0,-0.2 -0.1,-0.4 -0.1,-0.7 -0.3,-1.6 -0.5,-3.2 -0.5,-4.9 -0.1,-12.7 7.3,-20.3 20,-20.4 h 1.3 c 6.9,0 12.2,2.8 15.4,7.5 0,0 0.2,0.3 0.3,0.4 2.2,3.2 3.4,7.3 3.4,12.1 0,0.8 0,1.5 0,2.2 z"
       id="path4" /><path
       class="cls-2"
       d="m 694.8,38.1 c 27.6,0 46.7,18.2 46.7,44.3 0,26.1 -19.8,45.1 -46.5,44.9 -27.6,-0.2 -46.6,-18.6 -46.4,-45.3 0,-25.9 19,-44 46.2,-43.9 z m -20.1,44.5 c 0,12.8 7.7,20.5 20,20.4 12.8,0 20.4,-7.9 20.4,-20.8 0,-12.4 -7.9,-20.1 -20.5,-20 -12.6,0.1 -20,7.7 -19.9,20.4 z"
       id="path5" /><path
       class="cls-2"
       d="m 466.6,126 h -26.1 c 0,-13.3 0.1,-26.4 0,-39.5 0,-3.6 -0.2,-7.2 -0.9,-10.7 -2,-9.8 -8.8,-14.3 -19.8,-13.6 -8.7,0.6 -15.3,6.8 -15.7,15.8 -0.5,10.4 -0.2,20.9 -0.3,31.4 v 16.4 H 377.2 V 117 c 0.1,-13.1 -0.1,-26.3 0.6,-39.3 1.1,-22 18.2,-38.4 40.3,-39.5 15.9,-0.8 29.8,3.3 39.8,16.4 5.3,6.9 8.4,15 8.6,23.7 0.5,15.7 0.1,31.4 0.1,47.7 z"
       id="path6" /><path
       class="cls-2"
       d="M 314.4,126 H 288.8 V 4.2 h 25.6 V 126 Z"
       id="path7" /><path
       class="cls-2"
       d="m 589.6,125.9 c 0,-17.9 -1.4,-35.7 0.4,-53.1 2,-19.1 18.8,-32.6 39.2,-34.4 4.7,-0.4 9.5,0 14.7,0 v 24.7 c -4.9,0.4 -9.7,0.4 -14.2,1.3 -8.7,1.7 -13.6,6.5 -14.1,15.4 -0.7,12.9 -0.4,25.8 -0.6,38.8 v 7.6 H 589.6 V 126 Z"
       id="path8" /><path
       class="cls-2"
       d="M 358.3,126 H 333 V 39.3 h 25.3 z"
       id="path9" /><path
       class="cls-2"
       d="m 330.5,15 c 0,-8.9 6,-14.7 15.2,-14.7 9,0 14.9,5.9 14.9,14.9 0,9 -5.8,15.1 -14.8,15.1 -9.1,0.1 -15.4,-6.2 -15.3,-15.3 z"
       id="path10" /></g><g
     id="g12"><path
       class="cls-1"
       d="m 95.4,64.2 c 0,0.1 0,-0.2 0,0 z"
       id="path11"
       style="fill:url(#linear-gradient)" /><path
       class="cls-3"
       d="M 254,63.9 C 254.7,18.1 206.5,-14.4 165.2,6.5 152.9,12.1 140.9,23.3 127.1,23.4 117.2,23.5 107.8,17.1 99.2,11.9 90.8,6.7 81.8,2.4 72,0.9 34.1,-5.6 -0.5,26.1 0,64.2 c -0.5,38.2 34.2,69.9 72.3,63.2 9.8,-1.5 18.8,-5.8 27.2,-11.1 8.6,-5.2 17.9,-11.5 27.9,-11.3 13.7,0.2 25.6,11.2 37.9,16.9 41.5,21 89.7,-11.8 88.8,-57.7 v -0.3 z m -31.5,3.8 C 221.4,81.6 211.3,95.3 196.8,96.5 172.8,98 156.9,72.6 133.7,69.5 109.1,64.8 91.7,86.7 71.2,94.6 56,100.6 39.8,92.7 34.2,77.5 27.8,61.9 33.9,40.7 50,33.9 85.5,20.6 104,78.7 150.8,52.7 164.9,45.1 177,32.7 193,31.9 211.8,30.8 224.5,50 222.5,67.5 Z"
       id="path12"
       style="fill:url(#linear-gradient-2)" /></g></g></svg>
