<?xml version="1.0" encoding="UTF-8" standalone="no"?>
<!-- Generator: Adobe Illustrator 23.1.0, SVG Export Plug-In . SVG Version: 6.00 Build 0) -->

<svg
   id="Layer_1"
   x="0px"
   y="0px"
   viewBox="0 0 400 245"
   style="enable-background:new 0 0 400 245;"
   xml:space="preserve"
   version="1.1"
   xmlns="http://www.w3.org/2000/svg"
   xmlns:svg="http://www.w3.org/2000/svg"><defs
   id="defs19" /> <style
   type="text/css"
   id="style2"> .st0{fill:#747474;} .st1{fill:#F05225;} .st2{fill:#7FBB42;} .st3{fill:#33A0DA;} .st4{fill:#FDB813;} </style>  <g
   id="g10"
   transform="matrix(1.1056142,0,0,-1.1056142,1.0164947,148.40313)"><g
     id="g12"
     transform="scale(0.1)"><path
       d="m 1367.43,118.051 c 0,2.922 2.93,9.101 6.55,9.101 8.37,-3.996 22.58,-12.375 48.8,-12.375 44.06,0 75.02,21.848 75.02,58.996 0,34.954 -19.32,49.161 -56.45,57.536 l -33.87,7.644 c -19.3,4.371 -25.48,9.836 -25.48,21.848 0,13.847 10.91,22.941 34.95,22.941 26.94,0 48.07,-12.754 63.36,-30.222 l 4.74,3.277 -13.84,48.07 h -8.74 c 0,-4.004 -1.81,-8.379 -5.46,-8.379 -8.02,4.375 -20.39,11.285 -41.51,11.285 -37.88,0 -67.36,-19.664 -67.36,-55.347 0,-27.317 16.38,-44.422 52.07,-52.434 l 32.04,-7.293 c 21.49,-4.726 29.12,-12.363 29.12,-25.847 0,-18.567 -14.91,-28.411 -39.32,-28.411 -34.24,0 -56.08,17.852 -73.91,38.606 l -4.75,-3.274 14.93,-55.722 z m -129.63,154.414 29.91,-81.57 h -61 z m -243.952,4.726 46.622,-65.925 -44.087,-62.629 C 982.922,129.711 974.898,127.152 962.52,124.242 v -6.191 h 70.65 v 6.191 c -13.48,2.559 -19.31,7.656 -10.19,21.856 l 30.87,48.261 32.49,-46.804 c 12.01,-17.121 -0.73,-21.848 -11.66,-23.313 v -6.191 h 127.8 v 6.191 c -12.74,2.188 -18.57,6.563 -12.02,24.043 l 8.33,21.848 h 76.52 l 8.01,-21.848 c 5.1,-14.199 3.28,-21.855 -11.66,-24.043 v -6.191 h 78.66 v 6.191 c -9.1,2.91 -17.48,10.567 -21.48,21.121 l -60.81,159.504 h -41.52 l -58.26,-148.574 c -6.21,-15.43 -11.86,-22.695 -18.03,-26.895 -4.81,3.047 -9.23,7.688 -15.1,15.965 l -51.21,72.61 41.39,58.488 c 10.93,15.652 20.03,18.934 30.95,22.211 v 6.195 h -66.64 v -6.195 c 13.83,-1.09 17.85,-8.734 9.83,-20.758 l -28.88,-42.797 -26.1,39.164 c -10.92,16.02 -2.92,22.578 9.1,24.391 v 6.195 h -88.482 v -6.195 c 12.367,-3.277 18.559,-6.914 28.77,-21.481 z m -196.27,21.481 c 12.004,-3.277 18.207,-6.184 18.207,-24.391 V 148.637 c 0,-18.567 -6.203,-21.485 -18.207,-24.395 v -6.191 h 152.578 l 17.477,43.703 -4.746,3.269 c -15.293,-20.019 -31.309,-24.765 -52.434,-24.765 h -39.328 c -12.379,0 -15.289,0.383 -15.289,12.402 v 52.434 h 47.699 c 18.578,0 21.481,-4.375 24.406,-15.293 h 7.274 v 52.429 h -7.274 c -2.925,-10.921 -5.828,-15.66 -24.406,-15.66 h -47.699 v 44.059 c 0,9.101 2.91,12.027 15.289,12.027 0,0 30.594,0 33.504,0 21.48,0 32.777,-5.465 49.16,-22.949 l 4.731,3.281 -15.286,41.879 H 797.578 Z m -92.133,25.125 v -175.16 c 0,-18.567 -9.453,-21.485 -18.57,-24.395 v -6.191 h 80.844 v 6.191 c -9.094,2.91 -18.578,5.828 -18.578,24.395 v 175.16 c 0,10.562 3.281,13.109 17.121,13.109 37.871,0 56.437,-0.718 69.914,-21.843 l 4.722,2.906 -15.277,44.789 H 628.609 l -15.293,-44.789 4.735,-2.906 c 16.394,20.746 29.133,21.843 70.281,21.843 13.832,0 17.113,-2.547 17.113,-13.109"
       style="fill:#100f0d;fill-opacity:1;fill-rule:nonzero;stroke:none"
       id="path14" /><path
       d="m 3543.56,231.273 -33.86,7.653 c -19.31,4.371 -25.5,9.824 -25.5,21.84 0,13.847 10.92,22.949 34.94,22.949 26.94,0 48.08,-12.742 63.38,-30.227 l 4.74,3.278 -13.85,48.074 h -8.74 c 0,-4.004 -1.84,-8.379 -5.47,-8.379 -8.01,4.375 -20.38,11.289 -41.52,11.289 -37.86,0 -67.34,-19.664 -67.34,-55.348 0,-27.316 16.38,-44.429 52.06,-52.437 l 32.05,-7.293 c 21.47,-4.738 29.13,-12.375 29.13,-25.859 0,-18.567 -14.92,-28.391 -39.34,-28.391 -34.24,0 -56.08,17.832 -73.9,38.594 l -4.75,-3.274 14.92,-55.719 h 9.11 c 0,2.918 2.92,9.11 6.54,9.11 8.39,-4.004 22.59,-12.395 48.8,-12.395 44.06,0 75.04,21.867 75.04,59.004 0,34.953 -19.32,49.156 -56.44,57.531 z m -266.57,73.567 -14.94,-48.074 4.73,-3.278 c 20.02,26.582 25.51,29.137 52.09,29.137 9.1,0 12.01,-0.73 12.01,-12.02 V 148.598 c 0,-18.567 -5.47,-21.465 -20.39,-24.383 v -6.192 h 80.14 v 6.192 c -14.59,2.918 -20.41,5.816 -20.41,24.383 v 122.007 c 0,11.29 2.91,12.02 12.01,12.02 26.58,0 33.51,-2.555 53.53,-29.137 l 4.73,3.278 -14.92,48.074 z m -75.37,-6.192 c 10.92,-3.273 17.11,-6.195 17.11,-24.394 v -76.477 h -1.09 l -93.97,107.063 h -54.99 v -6.192 c 10.93,-4.726 18.23,-8.375 18.23,-24.394 V 148.598 c 0,-17.469 -6.2,-21.465 -18.23,-24.383 v -6.192 h 62.28 v 6.192 c -9.85,2.918 -19.31,6.914 -19.31,24.383 v 108.535 h 1.08 l 124.18,-141.66 h 6.58 v 158.781 c 0,18.199 9.11,21.121 16.39,24.394 v 6.192 h -58.26 z m -194.47,-158.41 h -39.32 c -12.4,0 -15.31,0.364 -15.31,12.371 v 52.434 h 47.71 c 18.58,0 21.48,-4.355 24.4,-15.293 h 7.28 v 52.449 h -7.28 c -2.92,-10.926 -5.82,-15.652 -24.4,-15.652 h -47.71 v 44.058 c 0,9.102 2.91,12.02 15.31,12.02 0,0 30.58,0 33.5,0 21.46,0 32.75,-5.469 49.16,-22.949 l 4.73,3.281 -15.31,41.883 h -145.65 v -6.192 c 12.01,-3.273 18.22,-6.195 18.22,-24.394 V 148.598 c 0,-18.567 -6.21,-21.465 -18.22,-24.383 v -6.192 h 152.58 l 17.48,43.7 -4.73,3.281 c -15.3,-20.039 -31.33,-24.766 -52.44,-24.766 z m -245.45,43.328 -53.9,121.274 h -66.99 v -6.192 c 12.01,-3.273 18.19,-6.195 18.19,-24.394 V 148.598 c 0,-16.375 -6.91,-20.743 -18.19,-24.383 v -6.192 h 59.35 v 6.192 c -12.38,3.269 -17.84,8.008 -17.84,24.383 v 117.281 l 67.37,-150.777 h 5.11 l 65.54,150.777 V 148.598 c 0,-18.567 -8.02,-21.836 -17.12,-24.383 v -6.192 h 76.48 v 6.192 c -12.02,2.918 -18.22,5.816 -18.22,24.383 v 125.656 c 0,18.199 6.2,21.121 18.22,24.394 v 6.192 h -65.92 z m -193.72,115.082 c 9.45,-2.187 18.56,-6.195 18.56,-24.394 v -92.141 c 0,-30.566 -11.65,-44.062 -46.25,-44.062 -36.77,0 -49.89,13.496 -49.89,44.062 v 92.141 c 0,18.199 6.92,22.207 18.2,24.394 v 6.192 h -76.45 v -6.192 c 11.29,-1.82 18.56,-6.195 18.56,-24.394 v -95.063 c 0,-49.878 43.33,-64.453 84.12,-64.453 45.52,0 77.94,15.293 77.94,67.375 v 92.141 c 0,18.199 5.47,21.844 16.76,24.394 v 6.192 h -61.55 z m -232.33,-81.574 h -32.06 v 49.524 c 0,12.019 2.93,15.297 12.04,15.297 h 20.76 c 22.57,0 35.67,-8.739 35.67,-30.59 0,-22.942 -14.92,-34.231 -36.41,-34.231 z m 66.65,-43.711 c -11.3,18.223 -22.95,26.231 -36.42,29.512 v 1.094 c 32.04,5.097 50.24,21.851 50.24,49.164 0,36.414 -29.13,51.707 -76.11,51.707 h -95.75 v -6.192 c 12.01,-3.273 18.2,-6.195 18.2,-24.394 V 148.598 c 0,-18.567 -6.19,-21.465 -18.2,-24.383 v -6.192 h 78.28 v 6.192 c -11.29,2.918 -18.95,5.816 -18.95,24.383 v 46.621 h 19.32 c 22.57,0 25.86,-9.09 40.42,-39.688 12.01,-25.129 28.05,-40.793 58.26,-40.793 15.3,0 21.5,2.922 27.68,6.203 v 5.098 c -24.41,3.633 -32.42,23.652 -46.97,47.324 z m -324.47,131.477 -14.94,-48.074 4.74,-3.278 c 20.03,26.582 25.51,29.137 52.08,29.137 9.1,0 12.01,-0.73 12.01,-12.02 V 148.598 c 0,-18.567 -5.45,-21.465 -20.39,-24.383 v -6.192 h 80.13 v 6.192 c -14.58,2.918 -20.41,5.816 -20.41,24.383 v 122.007 c 0,11.29 2.92,12.02 12.02,12.02 26.58,0 33.5,-2.555 53.52,-29.137 l 4.75,3.278 -14.93,48.074 z m -67.38,-73.567 -33.85,7.653 c -19.31,4.371 -25.51,9.824 -25.51,21.84 0,13.847 10.93,22.949 34.97,22.949 26.95,0 48.06,-12.742 63.37,-30.227 l 4.73,3.278 -13.83,48.074 h -8.75 c 0,-4.004 -1.81,-8.379 -5.46,-8.379 -8.01,4.375 -20.38,11.289 -41.51,11.289 -37.87,0 -67.38,-19.664 -67.38,-55.348 0,-27.316 16.4,-44.429 52.09,-52.437 l 32.03,-7.293 c 21.5,-4.738 29.14,-12.375 29.14,-25.859 0,-18.567 -14.92,-28.391 -39.33,-28.391 -34.23,0 -56.08,17.832 -73.93,38.594 l -4.73,-3.274 14.93,-55.719 h 9.11 c 0,2.918 2.9,9.11 6.55,9.11 8.38,-4.004 22.57,-12.395 48.8,-12.395 44.07,0 75.02,21.867 75.02,59.004 0,34.953 -19.3,49.156 -56.46,57.531 z m -162.76,67.375 c 10.91,-3.273 17.12,-6.195 17.12,-24.394 v -76.477 h -1.1 l -93.95,107.063 h -54.99 v -6.192 c 10.92,-4.726 18.2,-8.375 18.2,-24.394 V 148.598 c 0,-17.469 -6.19,-21.465 -18.2,-24.383 v -6.192 h 62.28 v 6.192 c -9.85,2.918 -19.31,6.914 -19.31,24.383 v 108.535 h 1.1 l 124.17,-141.66 h 6.54 v 158.781 c 0,18.199 9.11,21.121 16.41,24.394 v 6.192 h -58.27 z m -231.97,57.899 c 11.29,-3.281 20.38,-6.192 20.38,-24.395 V 148.598 c 0,-18.567 -9.09,-21.465 -20.38,-24.383 v -6.192 h 84.5 v 6.192 c -11.29,2.918 -20.41,5.816 -20.41,24.383 v 183.554 c 0,18.203 9.12,21.114 20.41,24.395 v 6.191 h -84.5 v -6.191"
       style="fill:#100f0d;fill-opacity:1;fill-rule:nonzero;stroke:none"
       id="path16" /><path
       d="m 338.645,422.496 h -43.317 l -8.285,-41.808 h 43.309 z m -49.211,-249.348 37.578,189.465 h -43.309 l -37.57,-189.465 z m 145.804,133.711 v 55.754 h -89.394 l -11.262,-56.254 h 32.156 L 356.43,254.668 h -32.168 l -11.145,-56.031 c -0.859,-3.809 -1.492,-6.543 -1.906,-9.18 -2.621,-17.148 4.867,-16.309 28.937,-16.309 l -11.003,-55.085 h -42.082 c -39.786,0 -72.149,0.398 -63.739,41.074 1.321,6.355 2.922,12.508 4.074,18.582 l 15.028,76.949 h -30.918 l 10.332,51.691 h 30.91 l 11.273,56.254 H 235.09 v 84.774 H 128.051 V 274.898 H 0 c 3.16406,-44.726 42.7578,-51.23 57.1719,-83.007 9.9336,-21.899 18.6289,-60.383 47.6561,-60.735 22.238,-0.273 22.238,28.75 50.848,28.75 28.586,0 41.289,-54.297 66.707,-99.0232 19.062,-35.125 50.722,-58.67186 79.418,-60.66405 23.547,-1.62891 34.941,6.36719 34.941,6.36719 -6.347,12.79296 -9.531,25.55856 -9.531,44.70706 0,28.7695 22.242,57.473 47.656,76.641 34.942,25.593 73.074,35.195 85.781,38.339 v 89.446 c 0,0 -25.41,13.605 -25.41,51.14"
       style="fill:#cd1e25;fill-opacity:1;fill-rule:nonzero;stroke:none"
       id="path18" /></g></g></svg>
