<?xml version="1.0" encoding="UTF-8" standalone="no"?>
<!-- Generator: Adobe Illustrator 23.1.0, SVG Export Plug-In . SVG Version: 6.00 Build 0) -->

<svg
   id="Layer_1"
   x="0px"
   y="0px"
   viewBox="0 0 400 245"
   style="enable-background:new 0 0 400 245;"
   xml:space="preserve"
   version="1.1"
   sodipodi:docname="texas-instruments.svg"
   inkscape:version="1.4 (e7c3feb100, 2024-10-09)"
   xmlns:inkscape="http://www.inkscape.org/namespaces/inkscape"
   xmlns:sodipodi="http://sodipodi.sourceforge.net/DTD/sodipodi-0.dtd"
   xmlns="http://www.w3.org/2000/svg"
   xmlns:svg="http://www.w3.org/2000/svg"><sodipodi:namedview
   id="namedview1"
   pagecolor="#ffffff"
   bordercolor="#000000"
   borderopacity="0.25"
   inkscape:showpageshadow="2"
   inkscape:pageopacity="0.0"
   inkscape:pagecheckerboard="0"
   inkscape:deskcolor="#d1d1d1"
   inkscape:zoom="2.7129811"
   inkscape:cx="279.76605"
   inkscape:cy="244.56492"
   inkscape:window-width="2600"
   inkscape:window-height="1826"
   inkscape:window-x="26"
   inkscape:window-y="23"
   inkscape:window-maximized="0"
   inkscape:current-layer="Layer_1" /><defs
   id="defs5"><style
     id="style1-6">
      .cls-1 {
        fill: url(#linear-gradient);
      }

      .cls-1, .cls-2, .cls-3 {
        stroke-width: 0px;
      }

      .cls-2 {
        fill: #000;
      }

      .cls-3 {
        fill: url(#linear-gradient-2);
      }
    </style><linearGradient
     id="linear-gradient"
     x1="95.4"
     y1="5886.9"
     x2="95.4"
     y2="5886.9"
     gradientTransform="translate(0,-5822.8)"
     gradientUnits="userSpaceOnUse"><stop
       offset="0"
       stop-color="#ffcd00"
       id="stop1" /><stop
       offset="1"
       stop-color="#6715e7"
       id="stop2" /></linearGradient><linearGradient
     id="linear-gradient-2"
     x1="0"
     y1="5887"
     x2="254.1"
     y2="5887"
     gradientTransform="translate(0,-5822.8)"
     gradientUnits="userSpaceOnUse"><stop
       offset="0"
       stop-color="#ffcd00"
       id="stop3" /><stop
       offset="1"
       stop-color="#6715e7"
       id="stop4" /></linearGradient></defs> <style
   type="text/css"
   id="style1"> .st0{fill:#747474;} .st1{fill:#F05225;} .st2{fill:#7FBB42;} .st3{fill:#33A0DA;} .st4{fill:#FDB813;} </style>  <g
   id="g18"
   transform="matrix(0.5716973,0,0,0.5716973,-28.013236,37.264914)">
	<rect
   x="-0.36000001"
   y="0.12"
   class="st0"
   width="800.35999"
   height="280.79999"
   id="rect1"
   style="fill:none" />
	<g
   id="g17">
		<g
   id="g16">
			<g
   id="g4">
				<path
   d="m 251.37,97.64 v 43.51 c 0,4.61 -2.35,5.34 -4.61,6.06 v 1.54 h 20.08 v -1.54 c -2.26,-0.72 -4.62,-1.45 -4.62,-6.06 V 97.64 c 0,-2.62 0.82,-3.26 4.25,-3.26 9.41,0 14.02,0.18 17.37,5.43 l 1.17,-0.72 -3.8,-11.13 h -48.94 l -3.8,11.13 1.18,0.72 c 4.07,-5.15 7.24,-5.43 17.46,-5.43 3.45,0 4.26,0.63 4.26,3.26 z"
   id="path1" />
				<path
   d="m 274.26,103.88 c 2.98,0.81 4.52,1.54 4.52,6.06 v 31.21 c 0,4.61 -1.54,5.34 -4.52,6.06 v 1.54 h 37.9 l 4.34,-10.86 -1.18,-0.81 c -3.8,4.97 -7.78,6.15 -13.03,6.15 h -9.77 c -3.08,0 -3.8,-0.09 -3.8,-3.08 v -13.03 h 11.85 c 4.62,0 5.34,1.09 6.06,3.8 h 1.81 V 117.9 h -1.81 c -0.73,2.72 -1.45,3.89 -6.06,3.89 h -11.85 v -10.94 c 0,-2.26 0.72,-2.99 3.8,-2.99 0,0 7.6,0 8.33,0 5.34,0 8.14,1.36 12.21,5.7 l 1.18,-0.81 -3.8,-10.4 h -36.18 z"
   id="path2" />
				<path
   d="m 323.01,109.21 11.58,16.38 -10.95,15.56 c -3.34,4.7 -5.34,5.34 -8.41,6.06 v 1.54 h 17.55 v -1.54 c -3.35,-0.63 -4.8,-1.9 -2.53,-5.43 l 7.67,-11.99 8.07,11.63 c 2.98,4.25 -0.18,5.43 -2.9,5.79 v 1.54 h 31.75 v -1.54 c -3.16,-0.54 -4.61,-1.63 -2.98,-5.97 l 2.07,-5.43 h 19.01 l 1.99,5.43 c 1.27,3.53 0.81,5.43 -2.9,5.97 v 1.54 h 19.54 v -1.54 c -2.26,-0.72 -4.34,-2.62 -5.34,-5.25 l -15.11,-39.62 h -10.31 l -14.47,36.91 c -1.54,3.83 -2.95,5.64 -4.48,6.68 -1.2,-0.75 -2.3,-1.91 -3.75,-3.96 l -12.72,-18.04 10.28,-14.53 c 2.71,-3.89 4.97,-4.71 7.69,-5.52 v -1.54 H 346.8 v 1.54 c 3.44,0.27 4.44,2.17 2.44,5.16 l -7.18,10.63 -6.48,-9.73 c -2.72,-3.98 -0.72,-5.61 2.26,-6.06 v -1.54 h -21.98 v 1.54 c 3.08,0.81 4.62,1.72 7.15,5.33 z m 60.61,1.18 7.43,20.26 H 375.9 Z"
   id="path3" />
				<path
   d="m 415.81,148.75 c 0,-0.72 0.73,-2.26 1.63,-2.26 2.08,0.99 5.61,3.08 12.12,3.08 10.95,0 18.64,-5.43 18.64,-14.65 0,-8.69 -4.8,-12.21 -14.02,-14.29 l -8.41,-1.9 c -4.79,-1.08 -6.33,-2.44 -6.33,-5.43 0,-3.44 2.71,-5.7 8.69,-5.7 6.69,0 11.94,3.17 15.74,7.51 l 1.18,-0.81 -3.44,-11.94 h -2.17 c 0,0.99 -0.45,2.08 -1.35,2.08 -2,-1.09 -5.07,-2.8 -10.31,-2.8 -9.41,0 -16.74,4.89 -16.74,13.75 0,6.78 4.07,11.03 12.93,13.02 l 7.96,1.81 c 5.34,1.18 7.23,3.07 7.23,6.42 0,4.61 -3.7,7.06 -9.77,7.06 -8.51,0 -13.93,-4.43 -18.36,-9.59 l -1.18,0.81 3.71,13.84 h 2.25 z"
   id="path4" />
			</g>
			<g
   id="g15">
				<path
   d="m 246.32,160.07 c 2.8,0.82 5.06,1.54 5.06,6.06 v 45.59 c 0,4.61 -2.26,5.33 -5.06,6.06 v 1.54 h 20.99 v -1.54 c -2.81,-0.72 -5.07,-1.45 -5.07,-6.06 v -45.59 c 0,-4.52 2.26,-5.25 5.07,-6.06 v -1.54 h -20.99 z"
   id="path5" />
				<path
   d="m 303.93,174.45 c 2.72,0.82 4.25,1.54 4.25,6.06 v 19 h -0.27 l -23.34,-26.59 h -13.66 v 1.54 c 2.71,1.18 4.52,2.08 4.52,6.06 v 31.21 c 0,4.34 -1.54,5.33 -4.52,6.06 v 1.54 h 15.47 v -1.54 c -2.45,-0.72 -4.8,-1.72 -4.8,-6.06 v -26.96 h 0.27 l 30.84,35.19 h 1.63 v -39.44 c 0,-4.52 2.26,-5.24 4.07,-6.06 v -1.54 h -14.48 v 1.53 z"
   id="path6" />
				<path
   d="m 344.37,191.19 -8.41,-1.9 c -4.8,-1.09 -6.34,-2.44 -6.34,-5.43 0,-3.44 2.72,-5.7 8.69,-5.7 6.7,0 11.94,3.16 15.74,7.5 l 1.18,-0.81 -3.44,-11.94 h -2.17 c 0,0.99 -0.45,2.08 -1.36,2.08 -1.99,-1.09 -5.06,-2.8 -10.31,-2.8 -9.41,0 -16.74,4.89 -16.74,13.75 0,6.78 4.07,11.03 12.94,13.03 l 7.96,1.81 c 5.34,1.18 7.24,3.07 7.24,6.42 0,4.61 -3.71,7.05 -9.77,7.05 -8.5,0 -13.93,-4.43 -18.36,-9.59 l -1.17,0.81 3.71,13.84 h 2.26 c 0,-0.72 0.72,-2.26 1.63,-2.26 2.08,0.99 5.61,3.08 12.13,3.08 10.94,0 18.63,-5.43 18.63,-14.66 -0.02,-8.67 -4.81,-12.2 -14.04,-14.28 z"
   id="path7" />
				<path
   d="m 361.1,172.92 -3.71,11.94 1.17,0.81 c 4.98,-6.6 6.34,-7.24 12.94,-7.24 2.26,0 2.99,0.18 2.99,2.99 v 30.31 c 0,4.61 -1.36,5.33 -5.07,6.06 v 1.54 h 19.9 v -1.54 c -3.62,-0.72 -5.07,-1.45 -5.07,-6.06 v -30.31 c 0,-2.8 0.73,-2.99 2.99,-2.99 6.6,0 8.32,0.63 13.29,7.24 l 1.18,-0.81 -3.71,-11.94 z"
   id="path8" />
				<path
   d="m 441.7,205.57 c -2.81,-4.52 -5.7,-6.51 -9.05,-7.33 v -0.27 c 7.96,-1.27 12.48,-5.43 12.48,-12.21 0,-9.05 -7.23,-12.84 -18.9,-12.84 h -23.79 v 1.54 c 2.99,0.82 4.52,1.54 4.52,6.06 v 31.21 c 0,4.61 -1.54,5.33 -4.52,6.06 v 1.54 h 19.45 v -1.54 c -2.8,-0.72 -4.71,-1.45 -4.71,-6.06 v -11.58 h 4.8 c 5.61,0 6.42,2.26 10.04,9.86 2.98,6.25 6.97,10.14 14.47,10.14 3.8,0 5.34,-0.72 6.87,-1.54 v -1.27 c -6.05,-0.91 -8.05,-5.89 -11.66,-11.77 z m -16.55,-10.85 h -7.97 v -12.3 c 0,-2.98 0.73,-3.8 2.99,-3.8 h 5.16 c 5.61,0 8.86,2.17 8.86,7.6 0,5.69 -3.7,8.5 -9.04,8.5 z"
   id="path9" />
				<path
   d="m 482.86,174.45 c 2.35,0.54 4.61,1.54 4.61,6.06 v 22.89 c 0,7.6 -2.9,10.95 -11.49,10.95 -9.13,0 -12.39,-3.35 -12.39,-10.95 v -22.89 c 0,-4.52 1.72,-5.52 4.52,-6.06 v -1.54 h -18.99 v 1.54 c 2.8,0.45 4.61,1.54 4.61,6.06 v 23.61 c 0,12.39 10.77,16.01 20.9,16.01 11.31,0 19.36,-3.8 19.36,-16.74 V 180.5 c 0,-4.52 1.36,-5.43 4.16,-6.06 v -1.54 h -15.29 z"
   id="path10" />
				<path
   d="m 530.98,203.04 -13.39,-30.12 h -16.64 v 1.54 c 2.98,0.82 4.52,1.54 4.52,6.06 v 31.21 c 0,4.07 -1.72,5.15 -4.52,6.06 v 1.54 h 14.74 v -1.54 c -3.08,-0.82 -4.43,-1.99 -4.43,-6.06 V 182.6 l 16.73,37.45 h 1.27 l 16.28,-37.45 v 29.13 c 0,4.61 -1.99,5.43 -4.25,6.06 v 1.54 h 19 v -1.54 c -2.99,-0.72 -4.53,-1.45 -4.53,-6.06 v -31.21 c 0,-4.52 1.54,-5.24 4.53,-6.06 v -1.54 h -16.37 z"
   id="path11" />
				<path
   d="m 591.95,213.81 h -9.77 c -3.08,0 -3.8,-0.09 -3.8,-3.08 v -13.02 h 11.85 c 4.62,0 5.34,1.08 6.06,3.79 h 1.81 v -13.02 h -1.81 c -0.72,2.71 -1.44,3.89 -6.06,3.89 h -11.85 v -10.95 c 0,-2.26 0.72,-2.99 3.8,-2.99 0,0 7.6,0 8.32,0 5.33,0 8.14,1.36 12.21,5.7 l 1.18,-0.81 -3.8,-10.4 H 563.9 v 1.54 c 2.98,0.82 4.53,1.54 4.53,6.06 v 31.21 c 0,4.61 -1.54,5.33 -4.53,6.06 v 1.54 h 37.9 l 4.34,-10.86 -1.17,-0.82 c -3.8,4.98 -7.78,6.16 -13.02,6.16 z"
   id="path12" />
				<path
   d="m 640.25,174.45 c 2.71,0.82 4.25,1.54 4.25,6.06 v 19 h -0.27 l -23.34,-26.59 h -13.66 v 1.54 c 2.71,1.18 4.53,2.08 4.53,6.06 v 31.21 c 0,4.34 -1.54,5.33 -4.53,6.06 v 1.54 h 15.47 v -1.54 c -2.44,-0.72 -4.8,-1.72 -4.8,-6.06 v -26.96 h 0.27 l 30.85,35.19 h 1.63 v -39.44 c 0,-4.52 2.26,-5.24 4.07,-6.06 v -1.54 h -14.47 z"
   id="path13" />
				<path
   d="m 658.98,172.92 -3.71,11.94 1.17,0.81 c 4.98,-6.6 6.34,-7.24 12.94,-7.24 2.26,0 2.98,0.18 2.98,2.99 v 30.31 c 0,4.61 -1.36,5.33 -5.06,6.06 v 1.54 h 19.9 v -1.54 c -3.62,-0.72 -5.07,-1.45 -5.07,-6.06 v -30.31 c 0,-2.8 0.72,-2.99 2.98,-2.99 6.6,0 8.33,0.63 13.3,7.24 l 1.17,-0.81 -3.71,-11.94 z"
   id="path14" />
				<path
   d="m 725.19,191.19 -8.41,-1.9 c -4.8,-1.09 -6.34,-2.44 -6.34,-5.43 0,-3.44 2.71,-5.7 8.68,-5.7 6.69,0 11.94,3.16 15.74,7.5 l 1.18,-0.81 -3.44,-11.94 h -2.17 c 0,0.99 -0.46,2.08 -1.36,2.08 -1.99,-1.09 -5.06,-2.8 -10.31,-2.8 -9.41,0 -16.73,4.89 -16.73,13.75 0,6.78 4.07,11.03 12.93,13.03 l 7.96,1.81 c 5.33,1.18 7.24,3.07 7.24,6.42 0,4.61 -3.71,7.05 -9.77,7.05 -8.51,0 -13.93,-4.43 -18.36,-9.59 l -1.18,0.81 3.71,13.84 h 2.26 c 0,-0.72 0.72,-2.26 1.63,-2.26 2.08,0.99 5.61,3.08 12.12,3.08 10.94,0 18.64,-5.43 18.64,-14.66 0,-8.67 -4.8,-12.2 -14.02,-14.28 z"
   id="path15" />
			</g>
		</g>
		<path
   class="st1"
   d="M 199.21,105.72 V 87.94 H 170.7 l -3.59,17.94 h 10.25 l -3.29,16.48 h -10.26 l -3.56,17.87 c -0.27,1.21 -0.48,2.09 -0.6,2.93 -0.84,5.46 1.55,5.2 9.22,5.2 l -3.51,17.57 h -13.42 c -12.69,0 -23,-0.13 -20.32,-13.1 0.42,-2.03 0.93,-3.99 1.3,-5.92 l 4.79,-24.53 h -9.86 l 3.3,-16.48 H 141 l 3.59,-17.94 h -9.23 V 60.91 h -34.13 v 55 h -40.8 c 1.01,14.26 13.63,16.33 18.23,26.46 3.17,6.98 5.94,19.25 15.19,19.37 7.09,0.09 7.09,-9.17 16.21,-9.17 9.12,0 13.16,17.32 21.27,31.57 6.08,11.21 16.18,18.71 25.32,19.34 7.51,0.52 11.14,-2.03 11.14,-2.03 -2.03,-4.08 -3.04,-8.14 -3.04,-14.25 0,-9.17 7.09,-18.32 15.19,-24.44 11.14,-8.16 23.3,-11.22 27.35,-12.22 v -28.52 c 0.02,0 -8.08,-4.34 -8.08,-16.3 z m -46.49,42.63 11.98,-60.41 h -13.81 l -11.98,60.41 z m 15.69,-79.5 H 154.6 l -2.64,13.33 h 13.81 z"
   id="path16"
   style="fill:#cc0000" />
	</g>
</g></svg>
